# xmcd CD database file
#
# Track frame offsets:
#	150
#	16459
#	31569
#	48106
#	66421
#	81923
#	104066
#	121793
#	140063
#	158466
#	171061
#	185830
#	204508
#	218497
#	234222
#	253695
#
# Disc length: 3566 seconds
#
# Revision: 0
# Processed by: cddbd v1.4PL0 Copyright (c) Steve Scherf et al.
# Submitted via: CdAid (MTCDDB.DLL V2003.12.21)
#
DISCID=d30dec10
DTITLE=Various Artist - Country Fever Vol 3
DYEAR=2001
DGENRE=Country
TTITLE0=Sure Can Smell The Rain
TTITLE1=Can't Be Real Gone
TTITLE2=Hypnotize The Moon
TTITLE3=Somewhere In The Vicinity Of The Heart
TTITLE4=Heads Carolina, Tails California 
TTITLE5=Who's That Man
TTITLE6=Not That Different
TTITLE7=Standing On The Edge Of Goodbye
TTITLE8=She's In Love With The Boy
TTITLE9=Blue
TTITLE10=Bobbie Ann Mason
TTITLE11=Any Man Of Mine
TTITLE12=She Ain't Your Ordinary Girl
TTITLE13=Down To My Last Teardrop
TTITLE14=Friends In Low Places
TTITLE15=Time Marches On
EXTD=ID3G:   2 YEAR: 2001
EXTT0=Blackhawk
EXTT1=Tim McGraw
EXTT2=Clay Walker
EXTT3=Shenandoah
EXTT4=Jo Dee Messina
EXTT5=Toby Keith
EXTT6=Collin Raye
EXTT7=John Berry
EXTT8=Trisha Yearwood
EXTT9=LeAnn Rimes
EXTT10=Rick Trevino
EXTT11=Shania Twain
EXTT12=Alabama
EXTT13=Tanya Tucker
EXTT14=Garth Brooks
EXTT15=Tracy Lawrence
PLAYORDER=
